<svg width="24" height="24" viewBox="0 0 24 24" fill="none" xmlns="http://www.w3.org/2000/svg">
<path d="M11.3668 2C11.8184 2 12.27 2 12.7216 2C12.7345 2.0405 12.7695 2.02674 12.7966 2.02949C13.0203 2.05229 13.2459 2.06487 13.4679 2.09829C13.9863 2.17653 14.4977 2.28898 14.9992 2.44506C15.674 2.65502 16.3186 2.93338 16.9364 3.27583C17.6718 3.68354 18.34 4.18326 18.9499 4.75964C19.4463 5.22869 19.8893 5.74609 20.2776 6.30911C20.9336 7.25939 21.4178 8.28988 21.7204 9.4049C21.8423 9.85351 21.9323 10.3092 21.9897 10.77C22.0219 11.0279 22.0514 11.2866 22.0553 11.5473C22.0557 11.5716 22.0522 11.5984 22.0844 11.6074C22.0844 11.979 22.0844 12.3501 22.0844 12.7217C22.0443 12.7346 22.0573 12.7692 22.0541 12.7971C22.0321 13.0161 22.0211 13.2371 21.9865 13.4541C21.9264 13.8339 21.8541 14.211 21.757 14.5841C21.5035 15.5595 21.1089 16.474 20.5791 17.3292C20.0151 18.2394 19.3214 19.0379 18.5015 19.7291C17.9552 20.1899 17.366 20.5858 16.7372 20.9208C16.1677 21.2247 15.573 21.4724 14.952 21.654C14.5154 21.7818 14.0752 21.8935 13.6251 21.9591C13.51 21.976 13.394 22.0161 13.2635 21.9925C13.2635 21.9383 13.2635 21.8891 13.2635 21.84C13.2635 19.6567 13.2635 17.4731 13.2635 15.2898C13.2635 15.2595 13.2667 15.2293 13.2632 15.1994C13.2557 15.1353 13.2899 15.1255 13.3433 15.1259C13.574 15.1278 13.8048 15.1267 14.0359 15.1267C14.6478 15.1267 15.2602 15.1271 15.8721 15.1263C15.9704 15.1263 15.9849 15.1164 15.9991 15.0382C16.0608 14.7056 16.1209 14.373 16.1814 14.0403C16.2384 13.7274 16.2966 13.4144 16.3528 13.1015C16.4074 12.7979 16.4628 12.4948 16.5128 12.1905C16.5206 12.1437 16.5705 12.091 16.5297 12.0497C16.4892 12.0085 16.4243 12.0336 16.3709 12.0336C15.3926 12.0324 14.414 12.0328 13.4357 12.0328C13.4007 12.0328 13.3653 12.0305 13.3304 12.0332C13.2765 12.0375 13.2616 12.012 13.2632 11.9625C13.2793 11.4517 13.2337 10.9398 13.2891 10.4295C13.308 10.2553 13.337 10.0839 13.387 9.9172C13.5391 9.41041 13.8582 9.06363 14.364 8.88514C14.7134 8.76208 15.0746 8.73455 15.4378 8.71725C15.8238 8.69917 16.2093 8.73101 16.5949 8.74635C16.688 8.74989 16.7057 8.76679 16.7026 8.64295C16.7022 8.63272 16.7026 8.62289 16.7026 8.61267C16.7026 7.77444 16.7026 6.93621 16.7026 6.09798C16.7026 6.0677 16.7026 6.03782 16.7018 6.00755C16.701 5.97334 16.6845 5.9529 16.6491 5.94661C16.4239 5.9065 16.2003 5.85579 15.9735 5.82787C15.7558 5.80114 15.5384 5.77126 15.3187 5.75671C14.9992 5.73548 14.6796 5.6942 14.3605 5.71582C14.116 5.73233 13.8712 5.7284 13.6267 5.75828C13.3842 5.78777 13.1397 5.81372 12.9024 5.86483C12.4048 5.97177 11.9261 6.13769 11.4851 6.40072C11.1636 6.59258 10.8806 6.83202 10.6416 7.11707C10.2411 7.59437 9.98252 8.14598 9.83238 8.74949C9.76281 9.02982 9.70582 9.31133 9.67634 9.59991C9.65355 9.82363 9.62092 10.0462 9.62092 10.2718C9.62132 10.8038 9.62053 11.3357 9.62014 11.8681C9.62014 11.9031 9.61857 11.9385 9.62014 11.9735C9.6225 12.0202 9.59892 12.0348 9.55607 12.0328C9.52109 12.0313 9.48572 12.0328 9.45074 12.0328C8.86866 12.0328 8.28658 12.0324 7.7045 12.0332C7.52567 12.0336 7.54414 12.0077 7.54375 12.1925C7.54336 13.116 7.54336 14.0396 7.54336 14.9631C7.54336 14.9832 7.54296 15.0032 7.54336 15.0233C7.54571 15.1243 7.54571 15.1243 7.63965 15.1267C7.66991 15.1274 7.69978 15.1267 7.73005 15.1267C8.30702 15.1267 8.88399 15.1267 9.46096 15.1267C9.49594 15.1267 9.53131 15.1274 9.56629 15.1271C9.60402 15.1263 9.62014 15.1451 9.61896 15.1821C9.61817 15.2073 9.61896 15.2324 9.61896 15.2572C9.61896 17.3952 9.61896 19.5337 9.61817 21.6717C9.61817 21.7087 9.63586 21.7519 9.59223 21.7889C9.4138 21.7374 9.23064 21.6894 9.05024 21.632C7.52763 21.146 6.18504 20.3585 5.03935 19.2396C4.62941 18.8393 4.25132 18.4104 3.91527 17.9472C3.38939 17.2226 2.96924 16.4398 2.65167 15.6024C2.3852 14.899 2.20086 14.174 2.09907 13.429C2.05701 13.1219 2.02321 12.8121 2.01378 12.5027C2.00042 12.0721 1.98627 11.6408 2.02714 11.2095C2.06212 10.8407 2.11007 10.4747 2.18043 10.111C2.33882 9.29246 2.59783 8.50809 2.95431 7.75478C3.37485 6.86544 3.9137 6.05473 4.5736 5.32619C4.91358 4.95032 5.27792 4.59844 5.67252 4.27801C6.19879 3.85064 6.75768 3.47241 7.35863 3.15827C7.98945 2.8288 8.64542 2.56262 9.33165 2.37115C9.72665 2.26106 10.1264 2.17417 10.532 2.1148C10.7894 2.07706 11.0472 2.04482 11.307 2.02909C11.331 2.02791 11.3577 2.03224 11.3668 2Z" fill="white"/>
</svg>
