<svg width="24" height="24" viewBox="0 0 24 24" fill="none" xmlns="http://www.w3.org/2000/svg">
<path fill-rule="evenodd" clip-rule="evenodd" d="M7.11761 2H16.8828C16.8896 2.00317 16.8964 2.00703 16.9031 2.01088L16.9031 2.01088C16.918 2.01939 16.9329 2.02788 16.9485 2.02896C17.2667 2.04892 17.5767 2.11076 17.8859 2.18904C18.4839 2.3405 19.0373 2.59138 19.5453 2.93462C20.2322 3.3988 20.7954 3.98587 21.2192 4.70249C21.6485 5.4285 21.9076 6.20853 21.9706 7.05156C21.9717 7.06694 21.9802 7.08193 21.9888 7.09694L21.9888 7.09696C21.9926 7.10373 21.9964 7.1105 21.9996 7.11732V16.8827C21.992 16.9272 21.9839 16.9716 21.9757 17.0161L21.9757 17.0161C21.9575 17.1156 21.9393 17.2152 21.9268 17.3156C21.8689 17.7833 21.7303 18.2283 21.5456 18.6584C21.2364 19.3785 20.7895 20.002 20.2122 20.5347C19.8658 20.854 19.4874 21.1272 19.0729 21.348C18.2495 21.7871 17.3673 21.9992 16.4351 21.9996C14.3238 22.0004 12.2126 22.0003 10.1014 22.0001L7.57043 22C7.19275 22 6.81821 21.9624 6.44758 21.8896C6.129 21.827 5.81942 21.7335 5.51571 21.6172C5.11299 21.463 4.73727 21.2599 4.38386 21.0149C4.02458 20.7656 3.70091 20.4764 3.40816 20.1507C3.11072 19.82 2.85594 19.4599 2.64851 19.0682C2.20899 18.2376 2.00039 17.3488 2.00039 16.4095L2.00039 16.4092C2.00078 13.4673 2.00117 10.5258 2 7.58384C2 7.2316 2.0274 6.88131 2.0908 6.53651C2.22895 5.78779 2.5037 5.08918 2.93225 4.45788C3.39838 3.771 3.98427 3.20624 4.70126 2.78159C5.42726 2.35146 6.20805 2.09237 7.05186 2.02896C7.06748 2.02788 7.08237 2.01939 7.09728 2.01088V2.01088C7.10402 2.00703 7.11078 2.00317 7.11761 2ZM20.2322 11.9975L20.2323 11.0315C20.2325 10.0649 20.2327 9.09824 20.231 8.13178C20.2308 7.97675 20.2254 7.82187 20.22 7.66696L20.22 7.66687C20.2163 7.56212 20.2127 7.45736 20.2106 7.35254C20.1997 6.80343 20.0557 6.28837 19.8036 5.80384C19.4322 5.09035 18.8854 4.55298 18.1704 4.18234C17.597 3.88489 16.983 3.77061 16.3466 3.76983C13.4504 3.76591 10.5543 3.76591 7.65849 3.77139C7.3677 3.77179 7.07221 3.79449 6.78729 3.85124C6.05659 3.99683 5.42061 4.33381 4.88912 4.86139C4.48562 5.26178 4.19052 5.72948 3.99483 6.26254C3.82693 6.72006 3.77097 7.19638 3.77019 7.67778C3.76627 10.3787 3.76745 13.0796 3.76901 15.7806C3.76901 15.9704 3.77512 16.1603 3.78122 16.3501C3.78452 16.4525 3.78781 16.5549 3.79015 16.6572C3.80306 17.2201 3.95648 17.7449 4.2187 18.2392C4.52084 18.8079 4.94626 19.265 5.48323 19.6188C6.13878 20.0505 6.86791 20.2302 7.64361 20.231C10.546 20.2337 13.4489 20.2345 16.3513 20.2286C16.6421 20.2282 16.9376 20.2036 17.2221 20.1464C17.9321 20.0043 18.5524 19.6787 19.0757 19.1727C19.4944 18.768 19.8005 18.292 20.002 17.7469C20.1711 17.2901 20.2283 16.8138 20.2298 16.332C20.2341 15.2814 20.2334 14.2308 20.2327 13.1803V13.1792V13.1791C20.2324 12.7852 20.2322 12.3913 20.2322 11.9975ZM17.1547 11.9931C17.1328 14.8459 14.8785 17.1414 12.0121 17.1484C9.14956 17.1555 6.85024 14.8694 6.85181 11.9971C6.85337 9.13606 9.13626 6.85274 11.998 6.85156C14.8581 6.85 17.1234 9.13136 17.1547 11.9931ZM15.3705 12.0139C15.3979 10.1693 13.8703 8.63587 12.0195 8.62531C10.1777 8.61474 8.63921 10.1223 8.6263 11.9755C8.61299 13.8319 10.1362 15.3684 11.9913 15.3739C13.8335 15.3798 15.3818 13.8663 15.3705 12.0139ZM18.6659 6.64804C18.671 5.86371 18.0471 5.34278 17.3697 5.35061C16.6953 5.34357 16.0817 5.86058 16.0734 6.62965C16.0656 7.4038 16.6738 7.93412 17.3607 7.93843C18.0244 7.94273 18.6608 7.45546 18.6659 6.64804Z" fill="white"/>
</svg>
