<svg width="40" height="38" viewBox="0 0 40 38" fill="none" xmlns="http://www.w3.org/2000/svg">
<path d="M22 34V11.66C23.7 11.06 25.06 9.7 25.66 8H32L26.44 20.98C26.1 21.76 25.98 22.66 26.22 23.48C27 26.08 29.74 28 33 28C36.26 28 39.02 26.08 39.78 23.48C40.02 22.66 39.9 21.76 39.56 20.98L34 8H36C37.1 8 38 7.1 38 6C38 4.9 37.1 4 36 4H25.66C24.84 1.66 22.62 0 20 0C17.38 0 15.16 1.66 14.34 4H4C2.9 4 2 4.9 2 6C2 7.1 2.9 8 4 8H6L0.44 20.98C0.1 21.76 -0.0200002 22.66 0.22 23.48C0.98 26.08 3.74 28 7 28C10.26 28 13.02 26.08 13.78 23.48C14.02 22.66 13.9 21.76 13.56 20.98L8 8H14.34C14.94 9.7 16.3 11.06 18 11.66V34M18 34H2C0.9 34 0 34.9 0 36C0 37.1 0.9 38 2 38H38C39.1 38 40 37.1 40 36C40 34.9 39.1 34 38 34H22M36.74 22H29.26L33 13.28L36.74 22ZM10.74 22H3.26L7 13.28L10.74 22ZM20 8C18.9 8 18 7.1 18 6C18 4.9 18.9 4 20 4C21.1 4 22 4.9 22 6C22 7.1 21.1 8 20 8Z" fill="#9888FF"/>
</svg>
