<svg width="32" height="44" viewBox="0 0 32 44" fill="none" xmlns="http://www.w3.org/2000/svg">
<path d="M20.98 8.95996C23.18 8.95996 24.98 7.15996 24.98 4.95996C24.98 2.75996 23.18 0.959961 20.98 0.959961C18.78 0.959961 16.98 2.75996 16.98 4.95996C16.98 7.15996 18.78 8.95996 20.98 8.95996ZM14.64 32.96L15.78 27.96L19.98 31.96V41.96C19.98 43.06 20.88 43.96 21.98 43.96C23.08 43.96 23.98 43.06 23.98 41.96V30.68C23.98 29.58 23.54 28.54 22.74 27.78L19.78 24.96L20.98 18.96C23.12 21.44 26.22 23.22 29.7 23.78C30.9 23.96 31.98 23 31.98 21.78C31.98 20.8 31.26 19.98 30.28 19.82C27.24 19.32 24.72 17.52 23.38 15.16L21.38 11.96C20.58 10.76 19.38 9.95996 17.98 9.95996C17.38 9.95996 16.98 10.16 16.38 10.16L8.41999 13.52C6.93999 14.16 5.97999 15.6 5.97999 17.22V21.96C5.97999 23.06 6.87999 23.96 7.97999 23.96C9.07999 23.96 9.97999 23.06 9.97999 21.96V17.16L13.58 15.76L10.38 31.96L2.53999 30.36C1.45999 30.14 0.399989 30.84 0.179989 31.92V32C-0.0400113 33.08 0.659989 34.14 1.73999 34.36L9.95999 36C12.08 36.42 14.16 35.08 14.64 32.96Z" fill="#16CB9F"/>
</svg>
