<svg width="24" height="24" viewBox="0 0 24 24" fill="none" xmlns="http://www.w3.org/2000/svg">
<path d="M11.9918 22C6.5054 22 2.0532 17.539 2.00062 12.114C1.93927 6.53995 6.44405 2.02641 11.9567 2.00011C17.5395 1.97382 22.0092 6.51366 22.018 12C22.018 17.5215 17.4957 22.0175 11.9918 22ZM14.7875 10.0018C15.1381 10.2297 15.4974 10.4312 15.8918 10.5802C16.2775 10.7292 16.9085 10.887 17.0838 10.8519C17.0838 10.0018 17.0838 9.15168 17.0838 8.29279C17.0487 8.29279 17.0136 8.28402 16.9786 8.28402C16.742 8.27526 16.5053 8.23144 16.2775 8.17009C15.9006 8.06492 15.5676 7.88964 15.2696 7.63547C14.8664 7.28491 14.5334 6.88176 14.3493 6.37343C14.2967 6.22444 14.2529 6.08422 14.2091 5.93523C14.1828 5.83882 14.1741 5.83882 14.0776 5.83006C14.0601 5.83006 14.0338 5.83006 14.0163 5.83006C13.6131 5.83006 13.2188 5.83006 12.8156 5.83006C12.6053 5.83006 12.6053 5.83006 12.6053 6.0404C12.6053 8.79235 12.6053 11.5443 12.6053 14.305C12.6053 14.5855 12.5352 14.8572 12.3949 15.1025C12.0268 15.7774 11.2731 16.1542 10.5106 16.0053C10.0461 15.9176 9.67803 15.6722 9.38881 15.3217C9.08207 14.936 8.98566 14.4715 9.0733 13.9807C9.17847 13.4023 9.50275 12.9816 10.0111 12.7012C10.3091 12.5434 10.6246 12.4733 10.9664 12.5084C11.0978 12.5259 11.2293 12.5434 11.3695 12.5609C11.3695 12.2016 11.3783 11.8423 11.3783 11.4917C11.3783 11.1411 11.387 10.7818 11.3695 10.4225C11.2819 10.4137 11.2205 10.405 11.1504 10.405C10.8174 10.3611 10.4931 10.3699 10.1601 10.4225C9.55533 10.5101 8.99443 10.7643 8.4861 11.1411C8.01284 11.5005 7.63598 11.9387 7.35553 12.4645C7.16272 12.8326 7.04002 13.2183 6.9699 13.6214C6.90855 13.9544 6.89979 14.2875 6.92608 14.6205C6.9699 15.0763 7.08384 15.5232 7.28541 15.9351C7.44317 16.2594 7.61845 16.5749 7.88138 16.8379C8.10048 17.057 8.32835 17.2673 8.58251 17.4426C9.196 17.8808 9.87961 18.1174 10.6333 18.1612C11.3257 18.2051 11.9918 18.0736 12.614 17.7581C13.1048 17.5127 13.5343 17.1797 13.8761 16.7502C14.1127 16.461 14.3055 16.1455 14.4545 15.8037C14.6736 15.2954 14.77 14.7607 14.7613 14.1998C14.7613 13.8405 14.7613 13.4724 14.7613 13.1131C14.7613 12.1315 14.7613 11.1499 14.7613 10.1771C14.7613 10.1245 14.7437 10.0719 14.7875 10.0018Z" fill="white"/>
</svg>
