<svg width="40" height="25" viewBox="0 0 40 25" fill="none" xmlns="http://www.w3.org/2000/svg">
<path fill-rule="evenodd" clip-rule="evenodd" d="M18.46 0H38C39.1 0 40 0.9 40 2V6C40 7.1 39.12 8 37.38 8.02H31.86C30.64 8.02 29.7 9.08 29.88 10.28C30.06 11.6 30.06 12.98 29.76 14.4C28.74 19.42 24.48 23.38 19.38 23.94C11.92 24.76 5.66 18.76 6.02 11.4C6.04 10.86 6.12 10.34 6.22 9.84C5.82 9.94 5.42 10 5 10C2.24 10 0 7.76 0 5C0 2.24 2.24 0 5 0C7.22 0 9.08 1.46 9.74 3.46C12.02 1.32 15.14 0 18.46 0ZM4 5C4 5.56 4.44 6 5 6C5.56 6 6 5.56 6 5C6 4.44 5.56 4 5 4C4.44 4 4 4.44 4 5ZM12 12C12 15.32 14.68 18 18 18C21.32 18 24 15.32 24 12C24 8.68 21.32 6 18 6C14.68 6 12 8.68 12 12ZM22 12C22 14.2091 20.2091 16 18 16C15.7909 16 14 14.2091 14 12C14 9.79086 15.7909 8 18 8C20.2091 8 22 9.79086 22 12Z" fill="#FAB348"/>
</svg>
